Coordinates
version=1
nRows=14
nColumns=24
inDegrees=yes

Units are S.I. units (second, meters, Newtons, ...)
Angles are in degrees.

endheader
time	pelvis_tilt	pelvis_list	pelvis_rotation	pelvis_tx	pelvis_ty	pelvis_tz	hip_flexion_r	hip_adduction_r	hip_rotation_r	knee_angle_r	ankle_angle_r	subtalar_angle_r	mtp_angle_r	hip_flexion_l	hip_adduction_l	hip_rotation_l	knee_angle_l	ankle_angle_l	subtalar_angle_l	mtp_angle_l	lumbar_extension	lumbar_bending	lumbar_rotation
      2.42500000	     14.78125669	     -3.96109204	      5.09426753	      1.00561756	      0.91559248	      0.30066614	     13.96857599	      5.17929986	     -5.43737900	    -30.65688576	     13.30192559	      1.83281019	     30.63895447	    -19.61681416	     -6.29929794	     -2.32768887	    -50.91631871	      9.20521974	      8.18831563	     56.70459394	    -28.78522846	      8.85646227	      1.89667996
      2.43000000	     14.44851863	     -4.35992361	      5.27422375	      1.01165542	      0.91529103	      0.30094355	     14.02677348	      5.74312001	     -5.33871011	    -30.72538135	     13.90807356	      1.26027685	     30.35087802	    -18.02844153	     -6.69492782	     -1.79729446	    -53.22805759	      9.08821191	      7.38112445	     53.37519879	    -28.44778704	      9.37175786	      1.98597056
      2.43500000	     14.14468672	     -4.76212973	      5.43074953	      1.01769431	      0.91508484	      0.30135874	     13.99912372	      6.36075342	     -5.09470788	    -30.68723057	     14.46867583	      0.42816187	     30.27044080	    -16.48761986	     -7.05919217	     -1.28682161	    -55.43343727	      9.36606537	      6.31242448	     52.92142177	    -28.14808423	      9.87659702	      2.09811959
      2.44000000	     13.79434030	     -5.09280108	      5.58603112	      1.02367064	      0.91488742	      0.30143152	     14.05297812	      6.82629093	     -4.95558206	    -30.74464085	     14.85600090	     -0.16280204	     29.81940864	    -14.85395419	     -7.29741606	     -0.77500187	    -57.60003002	      9.74391372	      5.27456805	     52.15049327	    -27.81341035	     10.33594098	      2.24826592
      2.44500000	     13.49766917	     -5.40147819	      5.75128924	      1.02965698	      0.91495543	      0.30142051	     13.99146090	      7.26494920	     -4.80921064	    -30.70899618	     15.08631969	     -0.67247080	     28.73530627	    -13.34096346	     -7.49663403	     -0.27724963	    -59.53652092	     10.09588956	      4.31528430	     51.44441416	    -27.53062695	     10.78864809	      2.34370418
      2.45000000	     13.39577763	     -5.65575407	      5.90573601	      1.03570500	      0.91550264	      0.30134996	     13.65047999	      7.65349102	     -4.62804217	    -30.59690965	     15.42018137	     -0.81867383	     25.69277406	    -12.10037790	     -7.63971771	      0.14846176	    -61.25864599	     10.31857327	      3.14337179	     50.47715310	    -27.46734767	     11.18415513	      2.42383347
      2.45500000	     13.30155026	     -5.91666983	      6.07364016	      1.04168737	      0.91612063	      0.30143489	     13.30934306	      8.03450000	     -4.57019044	    -30.46784233	     15.57047221	     -1.06233692	     25.21069518	    -10.85406793	     -7.82476610	      0.55952308	    -62.87722206	     10.51032937	      1.99364076	     50.30189722	    -27.40634823	     11.57101992	      2.53827821
      2.46000000	     13.26324602	     -6.15869680	      6.28824473	      1.04798671	      0.91704974	      0.30164492	     12.84631915	      8.37985792	     -4.65668286	    -30.25944445	     16.14758268	     -1.15195250	     25.23610128	     -9.68149550	     -8.05796373	      0.92608371	    -64.35331201	     10.54323970	      0.79921393	     50.16889993	    -27.22982156	     11.97043249	      2.27655234
      2.46500000	     13.02476960	     -6.38779859	      6.48506244	      1.05440442	      0.91761408	      0.30202659	     12.64002120	      8.68751280	     -4.75876174	    -30.14412159	     16.82863900	     -1.34211374	     25.44002026	     -8.25299532	     -8.31307180	      1.22134438	    -65.82219102	     10.70334653	     -0.17388521	     49.89135570	    -26.54307930	     12.38907024	      1.28764759
      2.47000000	     12.54684166	     -6.56700441	      6.61711041	      1.06111169	      0.91787782	      0.30253320	     12.67638850	      8.92200686	     -4.79518123	    -30.04241149	     17.39115588	     -1.55850244	     25.73591237	     -6.59028348	     -8.49428203	      1.47364682	    -67.21013006	     11.07974406	     -0.90563767	     49.50607903	    -25.26484000	     12.77810570	     -0.48627440
      2.47500000	     11.90334427	     -6.73923230	      6.69049917	      1.06813855	      0.91797386	      0.30319690	     12.84439507	      9.13861353	     -4.81626908	    -29.90024548	     17.83822036	     -1.73426605	     25.94044459	     -4.78105001	     -8.65879639	      1.65348638	    -68.49310921	     11.38795504	     -1.51834454	     49.03181187	    -23.52650654	     13.18570226	     -3.09650644
      2.48000000	     11.11494666	     -6.89219226	      6.78230638	      1.07546602	      0.91789953	      0.30422912	     13.11691461	      9.33855272	     -4.88729931	    -29.68920708	     18.18350177	     -1.88104360	     25.92989665	     -2.85403110	     -8.79563344	      1.92026423	    -69.65368747	     11.81328891	     -1.82991440	     48.63915155	    -21.43817237	     13.57889236	     -6.66075522
      2.48500000	     10.24689614	     -6.88403290	      6.82886245	      1.08276998	      0.91785731	      0.30533354	     13.45793637	      9.36294663	     -4.90033242	    -29.51383937	     18.56209953	     -1.83003789	     24.98253865	     -0.88468072	     -8.72906668	      2.13943296	    -70.67788777	     12.25446080	     -2.11413001	     47.24810255	    -19.26791146	     13.78590521	    -10.98303082
      2.49000000	      9.41812661	     -6.83045281	      6.92911647	      1.08988545	      0.91796390	      0.30634195	     13.71186543	      9.33908019	     -4.92526743	    -29.23183178	     18.81940485	     -1.68336306	     24.79498198	      1.06711831	     -8.59612402	      2.41161265	    -71.59712715	     12.56391399	     -2.48298382	     47.20752078	    -17.27559254	     13.93204052	    -15.57139706
